<svg width="35" height="35" viewBox="0 0 35 35" fill="none" xmlns="http://www.w3.org/2000/svg">
<path d="M26.5607 35H8.51949C7.4045 35.0106 6.29846 34.8001 5.26528 34.3808C4.23211 33.9614 3.29228 33.3414 2.50011 32.5567C1.70793 31.772 1.07912 30.8381 0.650001 29.8089C0.220882 28.7798 -3.53655e-05 27.6758 1.49645e-05 26.5607V8.51947C-0.0105663 7.40617 0.199247 6.30177 0.617367 5.26991C1.03549 4.23804 1.65365 3.29911 2.43624 2.5072C3.21883 1.7153 4.15038 1.08607 5.17722 0.655764C6.20407 0.225462 7.3059 0.00259427 8.41926 0L26.5607 0C28.792 0.00529372 30.9304 0.894019 32.5082 2.47179C34.086 4.04956 34.9747 6.18795 34.98 8.41924V26.5607C34.98 28.7955 34.0936 30.939 32.5153 32.5211C30.9369 34.1032 28.7955 34.9947 26.5607 35ZM8.41926 3.3677C7.07951 3.3677 5.79463 3.89991 4.84728 4.84726C3.89993 5.79461 3.36771 7.07949 3.36771 8.41924V26.5607C3.36771 27.9005 3.89993 29.1853 4.84728 30.1327C5.79463 31.08 7.07951 31.6123 8.41926 31.6123H26.5607C27.9005 31.6123 29.1854 31.08 30.1327 30.1327C31.0801 29.1853 31.6123 27.9005 31.6123 26.5607V8.51947C31.6123 7.17972 31.0801 5.89484 30.1327 4.94749C29.1854 4.00014 27.9005 3.46793 26.5607 3.46793L8.41926 3.3677Z" fill="white"/>
<path d="M17.5 26.1598C15.7816 26.1637 14.1007 25.6575 12.6702 24.7053C11.2398 23.7531 10.1242 22.3977 9.46472 20.8108C8.80528 19.224 8.63171 17.4771 8.96598 15.7915C9.30025 14.1059 10.1273 12.5575 11.3424 11.3424C12.5575 10.1273 14.106 9.30019 15.7916 8.96592C17.4772 8.63165 19.224 8.80522 20.8109 9.46466C22.3977 10.1241 23.7531 11.2397 24.7054 12.6702C25.6576 14.1006 26.1638 15.7816 26.1598 17.5C26.1545 19.7951 25.2405 21.9946 23.6176 23.6175C21.9947 25.2404 19.7951 26.1545 17.5 26.1598ZM17.5 12.1277C16.4485 12.1237 15.4195 12.4319 14.5433 13.0132C13.6671 13.5945 12.9831 14.4227 12.578 15.393C12.1728 16.3634 12.0648 17.4321 12.2675 18.4638C12.4702 19.4956 12.9745 20.444 13.7166 21.1889C14.4588 21.9339 15.4053 22.4418 16.4363 22.6484C17.4672 22.855 18.5364 22.751 19.5082 22.3495C20.48 21.948 21.3109 21.2672 21.8955 20.3932C22.4801 19.5192 22.7921 18.4913 22.7921 17.4398C22.7764 16.0449 22.2125 14.7121 21.2223 13.7294C20.2321 12.7467 18.8951 12.193 17.5 12.1878V12.1277Z" fill="white"/>
<path d="M26.2801 10.1232C27.4093 10.1232 28.3248 9.20773 28.3248 8.07849C28.3248 6.94925 27.4093 6.03381 26.2801 6.03381C25.1508 6.03381 24.2354 6.94925 24.2354 8.07849C24.2354 9.20773 25.1508 10.1232 26.2801 10.1232Z" fill="white"/>
</svg>
