<svg width="35" height="35" viewBox="0 0 35 35" fill="none" xmlns="http://www.w3.org/2000/svg">
<path d="M28.0402 0H6.95977C5.11392 0 3.34368 0.733259 2.03847 2.03847C0.733259 3.34368 0 5.11392 0 6.95977L0 28.0402C0 29.8861 0.733259 31.6563 2.03847 32.9615C3.34368 34.2667 5.11392 35 6.95977 35H16.4138V21.7644H12.069C12.069 20.2155 12.069 18.4253 12.069 16.6351H16.4138V12.6121C16.4031 11.8561 16.5431 11.1055 16.8257 10.4042C17.1082 9.70295 17.5276 9.06497 18.0594 8.52755C18.5912 7.99013 19.2248 7.56403 19.9231 7.27413C20.6213 6.98423 21.3704 6.83633 22.1264 6.83908H27.4971C27.4971 8.00575 27.4971 9.77586 27.4971 11.7471H25.023C24.3945 11.7466 23.7902 11.9892 23.3366 12.4241C22.8829 12.859 22.6151 13.4525 22.5891 14.0805V16.6351H27.477L26.9138 21.7644H22.5891V35H28.0402C29.8861 35 31.6563 34.2667 32.9615 32.9615C34.2667 31.6563 35 29.8861 35 28.0402V6.95977C35 5.11392 34.2667 3.34368 32.9615 2.03847C31.6563 0.733259 29.8861 0 28.0402 0V0Z" fill="white"/>
</svg>
